<svg width="43" height="44" viewBox="0 0 43 44" fill="none" xmlns="http://www.w3.org/2000/svg">
<path d="M36.7217 13.5C37.5501 13.5 38.2217 12.8284 38.2217 12C38.2217 11.1716 37.5501 10.5 36.7217 10.5V13.5ZM0.939358 10.9393C0.353573 11.5251 0.353573 12.4749 0.939358 13.0607L10.4853 22.6066C11.0711 23.1924 12.0208 23.1924 12.6066 22.6066C13.1924 22.0208 13.1924 21.0711 12.6066 20.4853L4.12134 12L12.6066 3.51472C13.1924 2.92893 13.1924 1.97919 12.6066 1.3934C12.0208 0.807611 11.0711 0.807611 10.4853 1.3934L0.939358 10.9393ZM36.7217 10.5L2.00002 10.5V13.5L36.7217 13.5V10.5Z" fill="#FF8A00"/>
<path d="M2.82705 41V31.4843H4.83892V35.4104H8.92306V31.4843H10.9303V41H8.92306V37.0692H4.83892V41H2.82705ZM14.587 41.1347C14.1316 41.1347 13.7258 41.0558 13.3696 40.8978C13.0134 40.7367 12.7315 40.4997 12.524 40.1869C12.3195 39.8709 12.2173 39.4775 12.2173 39.0067C12.2173 38.6102 12.2901 38.2772 12.4357 38.0078C12.5813 37.7383 12.7795 37.5214 13.0304 37.3573C13.2813 37.1931 13.5663 37.0692 13.8854 36.9856C14.2075 36.9019 14.5451 36.8431 14.8983 36.809C15.3133 36.7656 15.6479 36.7254 15.9019 36.6882C16.1559 36.6479 16.3402 36.5891 16.4548 36.5116C16.5694 36.4342 16.6267 36.3196 16.6267 36.1678V36.1399C16.6267 35.8457 16.5338 35.618 16.3479 35.4569C16.1652 35.2958 15.905 35.2153 15.5673 35.2153C15.2111 35.2153 14.9277 35.2943 14.7171 35.4523C14.5064 35.6071 14.367 35.8023 14.2989 36.0377L12.4682 35.889C12.5611 35.4554 12.7439 35.0806 13.0165 34.7646C13.2891 34.4456 13.6406 34.2008 14.0712 34.0305C14.5049 33.857 15.0067 33.7703 15.5766 33.7703C15.9731 33.7703 16.3526 33.8167 16.715 33.9097C17.0805 34.0026 17.4042 34.1466 17.6861 34.3418C17.971 34.5369 18.1956 34.7878 18.3598 35.0945C18.524 35.3981 18.606 35.762 18.606 36.1864V41H16.7289V40.0103H16.6732C16.5586 40.2334 16.4052 40.43 16.2132 40.6004C16.0211 40.7677 15.7904 40.8993 15.5209 40.9954C15.2514 41.0883 14.9401 41.1347 14.587 41.1347ZM15.1538 39.7687C15.445 39.7687 15.7021 39.7114 15.9251 39.5968C16.1481 39.4791 16.3231 39.3211 16.4501 39.1229C16.5771 38.9246 16.6406 38.7001 16.6406 38.4492V37.6918C16.5787 37.7321 16.4935 37.7692 16.3851 37.8033C16.2798 37.8343 16.1605 37.8637 16.0273 37.8916C15.8941 37.9164 15.7609 37.9396 15.6277 37.9613C15.4945 37.9799 15.3737 37.9969 15.2653 38.0124C15.033 38.0465 14.8301 38.1007 14.6566 38.175C14.4832 38.2494 14.3484 38.35 14.2524 38.477C14.1564 38.6009 14.1084 38.7558 14.1084 38.9417C14.1084 39.2112 14.206 39.4171 14.4011 39.5596C14.5993 39.699 14.8502 39.7687 15.1538 39.7687ZM19.7746 38.9788H21.6935C21.7028 39.2143 21.8082 39.4001 22.0095 39.5364C22.2108 39.6727 22.471 39.7408 22.7901 39.7408C23.1122 39.7408 23.3833 39.6665 23.6032 39.5178C23.8231 39.366 23.9331 39.1492 23.9331 38.8673C23.9331 38.6939 23.8897 38.5436 23.803 38.4166C23.7163 38.2865 23.5954 38.1843 23.4406 38.11C23.2857 38.0356 23.106 37.9985 22.9016 37.9985H21.8747V36.7021H22.9016C23.2082 36.7021 23.4437 36.6309 23.6078 36.4884C23.7751 36.3459 23.8587 36.1678 23.8587 35.9541C23.8587 35.7125 23.772 35.5189 23.5985 35.3733C23.4282 35.2246 23.1974 35.1502 22.9062 35.1502C22.612 35.1502 22.3673 35.2168 22.1721 35.35C21.9801 35.4801 21.8809 35.6505 21.8747 35.8611H19.9651C19.9713 35.4337 20.0998 35.0635 20.3507 34.7507C20.6047 34.4378 20.9455 34.1962 21.3729 34.0258C21.8035 33.8555 22.2852 33.7703 22.818 33.7703C23.4003 33.7703 23.9021 33.8524 24.3234 34.0165C24.7477 34.1776 25.073 34.4084 25.2991 34.7088C25.5283 35.0093 25.6429 35.3671 25.6429 35.7822C25.6429 36.1601 25.519 36.476 25.2712 36.73C25.0234 36.984 24.6765 37.1652 24.2304 37.2736V37.348C24.5247 37.3666 24.7911 37.4455 25.0296 37.5849C25.2681 37.7243 25.4586 37.9164 25.6011 38.1611C25.7436 38.4027 25.8149 38.6892 25.8149 39.0207C25.8149 39.4636 25.6848 39.8431 25.4246 40.159C25.1675 40.475 24.8112 40.7181 24.3559 40.8885C23.9037 41.0558 23.3848 41.1394 22.7994 41.1394C22.2294 41.1394 21.7183 41.0573 21.2661 40.8931C20.8169 40.7259 20.4592 40.4812 20.1928 40.159C19.9295 39.8369 19.7901 39.4435 19.7746 38.9788ZM29.0638 41.1347C28.6085 41.1347 28.2027 41.0558 27.8465 40.8978C27.4902 40.7367 27.2084 40.4997 27.0008 40.1869C26.7964 39.8709 26.6942 39.4775 26.6942 39.0067C26.6942 38.6102 26.767 38.2772 26.9125 38.0078C27.0581 37.7383 27.2564 37.5214 27.5073 37.3573C27.7582 37.1931 28.0432 37.0692 28.3622 36.9856C28.6844 36.9019 29.022 36.8431 29.3751 36.809C29.7902 36.7656 30.1247 36.7254 30.3787 36.6882C30.6327 36.6479 30.817 36.5891 30.9316 36.5116C31.0462 36.4342 31.1036 36.3196 31.1036 36.1678V36.1399C31.1036 35.8457 31.0106 35.618 30.8248 35.4569C30.642 35.2958 30.3818 35.2153 30.0442 35.2153C29.688 35.2153 29.4045 35.2943 29.1939 35.4523C28.9833 35.6071 28.8439 35.8023 28.7757 36.0377L26.9451 35.889C27.038 35.4554 27.2208 35.0806 27.4933 34.7646C27.7659 34.4456 28.1175 34.2008 28.5481 34.0305C28.9817 33.857 29.4835 33.7703 30.0535 33.7703C30.45 33.7703 30.8294 33.8167 31.1918 33.9097C31.5573 34.0026 31.881 34.1466 32.1629 34.3418C32.4479 34.5369 32.6725 34.7878 32.8366 35.0945C33.0008 35.3981 33.0829 35.762 33.0829 36.1864V41H31.2058V40.0103H31.15C31.0354 40.2334 30.8821 40.43 30.69 40.6004C30.498 40.7677 30.2672 40.8993 29.9977 40.9954C29.7282 41.0883 29.4169 41.1347 29.0638 41.1347ZM29.6307 39.7687C29.9218 39.7687 30.1789 39.7114 30.402 39.5968C30.625 39.4791 30.8 39.3211 30.927 39.1229C31.054 38.9246 31.1175 38.7001 31.1175 38.4492V37.6918C31.0555 37.7321 30.9704 37.7692 30.8619 37.8033C30.7566 37.8343 30.6374 37.8637 30.5042 37.8916C30.371 37.9164 30.2378 37.9396 30.1046 37.9613C29.9714 37.9799 29.8506 37.9969 29.7422 38.0124C29.5099 38.0465 29.307 38.1007 29.1335 38.175C28.96 38.2494 28.8253 38.35 28.7293 38.477C28.6332 38.6009 28.5852 38.7558 28.5852 38.9417C28.5852 39.2112 28.6828 39.4171 28.878 39.5596C29.0762 39.699 29.3271 39.7687 29.6307 39.7687ZM34.061 43.0909V39.4295H34.6092C34.7672 39.3304 34.8942 39.1724 34.9902 38.9556C35.0893 38.7388 35.1699 38.4832 35.2318 38.189C35.2969 37.8947 35.3464 37.5772 35.3805 37.2365C35.4177 36.8926 35.4502 36.5457 35.4781 36.1957L35.6639 33.8632H41.1373V39.4295H42.2432V43.0909H40.3568V41H35.9938V43.0909H34.061ZM36.5793 39.4295H39.2695V35.3872H37.3459L37.2716 36.1957C37.2189 36.9577 37.143 37.6051 37.0439 38.1379C36.9448 38.6675 36.7899 39.0981 36.5793 39.4295Z" fill="#FF8A00"/>
</svg>
