<svg width="135.000000" height="135.000000" viewBox="0 0 135 135" fill="none" xmlns="http://www.w3.org/2000/svg" xmlns:xlink="http://www.w3.org/1999/xlink">
	<desc>
			Created with Pixso.
	</desc>
	<defs>
		<clipPath id="clip667_261">
			<rect id="css-3_svgrepo.com" rx="0.000000" width="134.000000" height="134.000000" transform="translate(0.500000 0.500000)" fill="white" fill-opacity="0"/>
		</clipPath>
	</defs>
	<rect id="css-3_svgrepo.com" rx="0.000000" width="134.000000" height="134.000000" transform="translate(0.500000 0.500000)" fill="#FFFFFF" fill-opacity="0"/>
	<g clip-path="url(#clip667_261)">
		<path id="Vector" d="M25.31 118.12L16.87 12.65L118.12 12.65L109.68 118.12L67.5 130.78L25.31 118.12Z" fill="#1172B8" fill-opacity="1.000000" fill-rule="nonzero"/>
		<path id="Vector" d="M109.68 21.09L67.5 21.09L67.5 124.45L101.25 113.9L109.68 21.09Z" fill="#33AADD" fill-opacity="1.000000" fill-rule="nonzero"/>
		<path id="Vector" d="M82.26 73.82L40.07 73.82L37.96 59.06L71.71 48.51L37.96 48.51L35.85 35.85L101.25 35.85L99.14 50.62L71.71 61.17L97.03 61.17L92.81 101.25L67.5 109.68L42.18 101.25L40.07 80.15L52.73 80.15L54.84 90.7L67.5 94.92L80.15 90.7L82.26 73.82Z" fill="#FFFFFF" fill-opacity="1.000000" fill-rule="nonzero"/>
	</g>
</svg>
