<svg xmlns="http://www.w3.org/2000/svg" width="39" height="31" viewBox="0 0 39 31" fill="none">
<path d="M1 3.89693C0.723858 3.89693 0.5 4.12079 0.5 4.39693C0.5 4.67308 0.723858 4.89693 1 4.89693V3.89693ZM38 4.89693C38.2761 4.89693 38.5 4.67308 38.5 4.39693C38.5 4.12079 38.2761 3.89693 38 3.89693V4.89693ZM30.374 4.89693H38V3.89693H30.374V4.89693ZM1 4.89693H7.21374V3.89693H1V4.89693ZM15.5 4.89693H30.374V3.89693H15.5V4.89693Z" fill="#FF8A00"/>
<circle cx="11.5" cy="4.5" r="4" stroke="#FF8A00"/>
<path d="M38 14.8893C38.2761 14.8893 38.5 15.1131 38.5 15.3893C38.5 15.6654 38.2761 15.8893 38 15.8893V14.8893ZM1 15.8893C0.723858 15.8893 0.5 15.6654 0.5 15.3893C0.5 15.1131 0.723858 14.8893 1 14.8893V15.8893ZM8.8579 15.8893H1V14.8893H8.8579V15.8893ZM38 15.8893H32.4508V14.8893H38V15.8893ZM24.5 15.8893H8.8579V14.8893H24.5V15.8893Z" fill="#FF8A00"/>
<circle cx="4.5" cy="4.5" r="4" transform="matrix(-1 0 0 1 33 11)" stroke="#FF8A00"/>
<path d="M1 25.8817C0.723858 25.8817 0.5 26.1055 0.5 26.3817C0.5 26.6578 0.723858 26.8817 1 26.8817V25.8817ZM38 26.8817C38.2761 26.8817 38.5 26.6578 38.5 26.3817C38.5 26.1055 38.2761 25.8817 38 25.8817V26.8817ZM30.374 26.8817H38V25.8817H30.374V26.8817ZM1 26.8817H7.21374V25.8817H1V26.8817ZM15.5 26.8817H30.374V25.8817H15.5V26.8817Z" fill="#FF8A00"/>
<circle cx="11.5" cy="26.5" r="4" stroke="#FF8A00"/>
</svg>