<svg xmlns="http://www.w3.org/2000/svg" width="30" height="30" viewBox="0 0 30 30" fill="none">
<path d="M4.20508 10.2734C4.20508 8.91252 4.20508 8.2321 4.46992 7.71234C4.70287 7.25513 5.07458 6.88341 5.53179 6.65046C6.05156 6.38562 6.73199 6.38562 8.09282 6.38562H12.3141C12.9084 6.38562 13.2056 6.38562 13.4852 6.45276C13.7331 6.51228 13.9701 6.61045 14.1876 6.74368C14.4327 6.89394 14.6429 7.10406 15.0632 7.52432L15.2155 7.67676C15.6358 8.09702 15.8459 8.30714 16.0911 8.4574C16.3086 8.59062 16.5456 8.6888 16.7935 8.74832C17.0731 8.81546 17.3703 8.81546 17.9646 8.81546H22.1859C23.5467 8.81546 24.2272 8.81546 24.7469 9.0803C25.2041 9.31325 25.5759 9.68496 25.8088 10.1422C26.0736 10.6619 26.0736 11.3424 26.0736 12.7032V19.5067C26.0736 20.8676 26.0736 21.5481 25.8088 22.0678C25.5759 22.525 25.2041 22.8967 24.7469 23.1296C24.2272 23.3945 23.5467 23.3945 22.1859 23.3945H8.09282C6.73197 23.3945 6.05156 23.3945 5.53179 23.1296C5.07458 22.8967 4.70287 22.525 4.46992 22.0678C4.20508 21.5481 4.20508 20.8676 4.20508 19.5067V10.2734Z" stroke="white" stroke-width="2.17988" stroke-linecap="round" stroke-linejoin="round"/>
</svg>