<svg width="17" height="21" viewBox="0 0 17 21" fill="none" xmlns="http://www.w3.org/2000/svg">
<path d="M16.2899 18.75H16.0409C15.7235 18.75 15.455 18.7061 15.4208 18.3887V18.3838C14.7079 11.748 10.5282 11.6211 10.5282 10.0586C10.5282 8.49609 14.7128 8.36914 15.4208 1.7334V1.72852C15.455 1.41113 15.7235 1.36719 16.0409 1.36719H16.2899C16.6561 1.36719 16.9735 1.08398 16.9931 0.717773C17.0126 0.327148 16.7001 0 16.3095 0H0.703993C0.337782 0 0.0203995 0.283203 0.000868245 0.649414C-0.018663 1.04004 0.293837 1.36719 0.684462 1.36719H0.953017C1.2704 1.36719 1.53895 1.41113 1.57313 1.72852V1.7334C2.28602 8.36914 6.46571 8.49609 6.46571 10.0586C6.46571 11.6211 2.28114 11.748 1.57313 18.3838V18.3887C1.53895 18.7061 1.2704 18.75 0.953017 18.75H0.703993C0.337782 18.75 0.0203995 19.0332 0.000868245 19.3994C-0.018663 19.79 0.293837 20.1172 0.684462 20.1172H16.3095C16.7001 20.1172 17.0126 19.7949 16.9931 19.3994C16.9735 19.0332 16.6561 18.75 16.2899 18.75ZM3.9706 17.0801C5.37196 13.1836 7.85731 13.6572 7.85731 12.1191V9.4043C7.85731 8.45703 6.06044 7.79785 4.93739 6.25977C4.75185 6.00586 4.93739 5.6543 5.25478 5.6543H11.744C12.0614 5.6543 12.2518 5.99609 12.0712 6.25C10.9677 7.79297 9.13661 8.45703 9.13661 9.4043V12.1191C9.13661 13.6426 11.5243 13.2275 13.0331 17.0801C13.1698 17.4268 13.0673 17.8613 12.6962 17.8613H4.30751C3.93153 17.8613 3.84364 17.4316 3.9706 17.0801Z" fill="black"/>
</svg>
