<svg width="33" height="33" viewBox="0 0 33 33" fill="none" xmlns="http://www.w3.org/2000/svg">
<g clip-path="url(#clip0_738_587)">
<path fill-rule="evenodd" clip-rule="evenodd" d="M9.68493 0.202503C6.99892 0.323696 4.67084 0.980391 2.79096 2.85233C0.904521 4.73411 0.255983 7.07141 0.134489 9.72948C0.058965 11.3885 -0.382658 23.9222 0.897956 27.2092C1.76155 29.4267 3.46243 31.1317 5.70022 31.998C6.74441 32.4042 7.9364 32.6791 9.68493 32.7594C24.3053 33.421 29.7249 33.0608 32.0103 27.2092C32.4158 26.1676 32.6949 24.9766 32.7721 23.2324C33.4403 8.57457 32.6638 5.39739 30.1157 2.85233C28.0946 0.836263 25.7172 -0.536119 9.68493 0.202503ZM9.81953 29.8115C8.21876 29.7394 7.35025 29.4727 6.77069 29.2483C5.31276 28.6816 4.21768 27.5911 3.65454 26.1417C2.6793 23.6441 3.00275 11.7819 3.08977 9.86242C3.17514 7.98227 3.55603 6.26396 4.88262 4.93739C6.52443 3.29963 8.64563 2.49698 23.0887 3.14882C24.9735 3.23397 26.6958 3.61409 28.0256 4.93739C29.6674 6.57513 30.4818 8.71266 29.8185 23.1003C29.7462 24.6971 29.4786 25.5635 29.2537 26.1417C27.7679 29.9494 24.3496 30.478 9.81953 29.8115ZM23.2479 7.73788C23.2479 8.82208 24.1296 9.7037 25.2181 9.7037C26.3067 9.7037 27.1899 8.82208 27.1899 7.73788C27.1899 6.6537 26.3067 5.77286 25.2181 5.77286C24.1296 5.77286 23.2479 6.6537 23.2479 7.73788ZM8.0234 16.4801C8.0234 21.1248 11.7979 24.8905 16.4541 24.8905C21.1103 24.8905 24.8848 21.1248 24.8848 16.4801C24.8848 11.8355 21.1103 8.07223 16.4541 8.07223C11.7979 8.07223 8.0234 11.8355 8.0234 16.4801ZM10.9819 16.4801C10.9819 13.4667 13.4315 11.0218 16.4541 11.0218C19.4767 11.0218 21.9263 13.4667 21.9263 16.4801C21.9263 19.4952 19.4767 21.9409 16.4541 21.9409C13.4315 21.9409 10.9819 19.4952 10.9819 16.4801Z" fill="#FF7300"/>
</g>
<defs>
<clipPath id="clip0_738_587">
<rect width="33" height="33" fill="white"/>
</clipPath>
</defs>
</svg>
