<svg width="98" height="56" viewBox="0 0 98 56" fill="none" xmlns="http://www.w3.org/2000/svg">
<path d="M75.6 10.4487H51.2897C49.7433 10.4487 48.4897 11.7023 48.4897 13.2487V21C48.4897 22.5464 49.7433 23.8 51.2897 23.8H75.6C77.1464 23.8 78.4 22.5464 78.4 21V13.2487C78.4 11.7023 77.1464 10.4487 75.6 10.4487Z" stroke="white" stroke-width="1.4"/>
<path d="M41.8879 12.771H21.2798C20.5066 12.771 19.8798 13.3978 19.8798 14.171V21.8198C19.8798 22.593 20.5066 23.2198 21.2798 23.2198H41.8879C42.6611 23.2198 43.2879 22.593 43.2879 21.8198V14.171C43.2879 13.3978 42.6611 12.771 41.8879 12.771Z" stroke="white" stroke-width="1.4"/>
<path d="M27.5579 6.97588L20.2946 9.38293C20.2738 9.38983 20.252 9.39335 20.23 9.39335C20.0313 9.39335 19.9485 9.64746 20.1091 9.76452L20.234 9.85559C20.2533 9.86969 20.2746 9.88101 20.297 9.8892L20.6848 10.0306C21.2747 10.2456 21.915 10.2812 22.5251 10.133L25.5684 9.39335L28.221 8.90986L32.2 8.42636H33.5263H34.1041C35.038 8.42636 35.9647 8.26272 36.8421 7.94287L37.5266 7.69334C37.912 7.55286 38.1684 7.18642 38.1684 6.77622C38.1684 6.3259 37.8604 5.93402 37.4228 5.82768L36.442 5.58932C36.2672 5.54685 36.0881 5.52539 35.9082 5.52539H35.1332C34.5059 5.52539 33.8804 5.593 33.2675 5.72704L27.5579 6.97588Z" fill="white"/>
<path d="M69.0475 3.03911L73.6669 4.55867L75.1777 5.13849C75.9114 5.42009 76.5374 5.92625 76.9664 6.58474C77.2008 6.94446 76.871 7.40452 76.4551 7.2981L73.6669 6.58474L69.7075 6.07822L63.7683 4.55867L61.7886 4.05215L58.9604 3.03911L57.0749 2.53259L55.8912 2.21459C55.4773 2.10338 55.1895 1.72811 55.1895 1.29946C55.1895 0.840571 55.5183 0.447628 55.97 0.366728L57.7462 0.0486143C57.9268 0.0162685 58.1099 0 58.2934 0H58.9547C60.2055 0 61.4463 0.222503 62.6192 0.657111L69.0475 3.03911Z" fill="white"/>
<path d="M13.7643 45.1388C13.7643 46.6219 13.476 47.873 12.8992 48.8921C12.3224 49.9069 11.544 50.6766 10.5639 51.2014C9.58386 51.7217 8.49104 51.9819 7.28547 51.9819C6.07123 51.9819 4.97407 51.7196 3.994 51.1949C3.01827 50.6658 2.24202 49.8939 1.66525 48.8791C1.09282 47.86 0.806606 46.6132 0.806606 45.1388C0.806606 43.6557 1.09282 42.4068 1.66525 41.392C2.24202 40.3729 3.01827 39.6031 3.994 39.0828C4.97407 38.558 6.07123 38.2957 7.28547 38.2957C8.49104 38.2957 9.58386 38.558 10.5639 39.0828C11.544 39.6031 12.3224 40.3729 12.8992 41.392C13.476 42.4068 13.7643 43.6557 13.7643 45.1388ZM10.0435 45.1388C10.0435 44.3409 9.9373 43.6687 9.7248 43.1223C9.51665 42.5715 9.20658 42.1552 8.79461 41.8733C8.38697 41.5871 7.88392 41.444 7.28547 41.444C6.68702 41.444 6.18181 41.5871 5.76983 41.8733C5.36219 42.1552 5.05213 42.5715 4.83963 43.1223C4.63148 43.6687 4.5274 44.3409 4.5274 45.1388C4.5274 45.9367 4.63148 46.6111 4.83963 47.1618C5.05213 47.7082 5.36219 48.1245 5.76983 48.4108C6.18181 48.6926 6.68702 48.8336 7.28547 48.8336C7.88392 48.8336 8.38697 48.6926 8.79461 48.4108C9.20658 48.1245 9.51665 47.7082 9.7248 47.1618C9.9373 46.6111 10.0435 45.9367 10.0435 45.1388ZM23.6469 51.7998L19.5618 46.4138H19.0544V51.7998H15.4377V38.4778H19.0544V43.4996H19.5228L23.3477 38.4778H27.9011L22.8273 44.8786L28.1873 51.7998H23.6469ZM31.0836 51.9819V49.1718H31.7341C32.1157 49.1718 32.4171 49.1415 32.6383 49.0808C32.8638 49.0157 33.0372 48.903 33.1587 48.7425C33.2844 48.5777 33.3907 48.3479 33.4774 48.053L33.6075 47.6627L28.6117 38.4778H32.3065L35.0906 43.8899L37.2242 38.4778H40.8669L36.2875 48.8856C36.036 49.432 35.7368 49.9416 35.3898 50.4143C35.0429 50.8826 34.6114 51.2621 34.0954 51.5526C33.5793 51.8388 32.9397 51.9819 32.1764 51.9819H31.0836ZM42.0378 51.7998V38.4778H47.7881C48.7769 38.4778 49.642 38.6729 50.3836 39.0632C51.1251 39.4535 51.7019 40.0021 52.1139 40.709C52.5259 41.4158 52.7319 42.242 52.7319 43.1873C52.7319 44.1414 52.5194 44.9675 52.0944 45.6657C51.6737 46.3639 51.0818 46.9016 50.3185 47.2789C49.5596 47.6562 48.6728 47.8448 47.658 47.8448H44.2235V45.0347H46.9295C47.3545 45.0347 47.7166 44.961 48.0158 44.8136C48.3194 44.6618 48.5514 44.4471 48.7118 44.1696C48.8766 43.892 48.959 43.5646 48.959 43.1873C48.959 42.8057 48.8766 42.4805 48.7118 42.2116C48.5514 41.9384 48.3194 41.7302 48.0158 41.5871C47.7166 41.4397 47.3545 41.366 46.9295 41.366H45.6545V51.7998H42.0378ZM54.0588 38.4778H58.5602L61.6566 46.0235H61.8127L64.909 38.4778H69.4104V51.7998H65.8717V44.098H65.7676L62.8014 51.6957H60.6678L57.7016 44.046H57.5975V51.7998H54.0588V38.4778ZM81.5062 43.8638V46.674H75.5998V43.8638H81.5062ZM71.0984 47.2984H74.6631C74.6457 47.9489 74.83 48.4281 75.216 48.736C75.6063 49.0439 76.1418 49.1979 76.8227 49.1979C77.4558 49.1979 77.9372 49.0743 78.2668 48.8271C78.6007 48.5755 78.8284 48.1831 78.9498 47.6497C79.0756 47.112 79.1384 46.4138 79.1384 45.5551V44.7485C79.1384 43.9072 79.0669 43.2199 78.9238 42.6865C78.7807 42.1531 78.5465 41.7606 78.2212 41.5091C77.896 41.2576 77.4558 41.1318 76.9008 41.1318C76.2936 41.1318 75.8274 41.212 75.5022 41.3725C75.177 41.5329 74.9536 41.7628 74.8322 42.062C74.7108 42.3612 74.6457 42.719 74.6371 43.1353H71.0724C71.1591 42.242 71.4258 41.4288 71.8725 40.696C72.3191 39.9631 72.9588 39.3798 73.7914 38.9462C74.624 38.5125 75.6605 38.2957 76.9008 38.2957C78.063 38.2957 79.0734 38.558 79.932 39.0828C80.795 39.6031 81.4628 40.349 81.9355 41.3204C82.4126 42.2875 82.6511 43.4389 82.6511 44.7745V45.5551C82.6511 46.8908 82.4212 48.04 81.9616 49.0027C81.5019 49.9611 80.8384 50.6983 79.9711 51.2144C79.1037 51.7261 78.0543 51.9819 76.8227 51.9819C75.7039 51.9819 74.7216 51.7911 73.876 51.4095C73.0347 51.0236 72.3712 50.4815 71.8855 49.7833C71.4041 49.0808 71.1418 48.2525 71.0984 47.2984ZM84.3082 51.7998V38.4778H87.9249V43.6817H92.7125V38.4778H96.3292V51.7998H92.7125V46.5959H87.9249V51.7998H84.3082Z" fill="white"/>
</svg>
