<svg width="120" height="120" viewBox="0 0 120 120" fill="none" xmlns="http://www.w3.org/2000/svg">
<path d="M60 69.2775C65.1777 69.2775 69.375 65.0801 69.375 59.9025C69.375 54.7248 65.1777 50.5275 60 50.5275C54.8223 50.5275 50.625 54.7248 50.625 59.9025C50.625 65.0801 54.8223 69.2775 60 69.2775Z" fill="#00D8FF"/>
<path d="M60 81.3975C48.7318 81.6701 37.4917 80.1512 26.7 76.8975C21.7148 75.3172 17.0653 72.8278 12.9863 69.555C11.4297 68.437 10.1335 66.9954 9.18653 65.3293C8.23955 63.6632 7.66421 61.8119 7.5 59.9025C7.5 53.7038 14.31 47.6288 25.7175 43.6538C36.7977 40.1316 48.3747 38.4246 60 38.5988C71.4701 38.4385 82.892 40.1147 93.8325 43.5638C98.6336 45.0944 103.125 47.4635 107.1 50.5613C108.63 51.6272 109.907 53.0165 110.84 54.6308C111.773 56.2451 112.34 58.0448 112.5 59.9025C112.5 66.345 104.888 72.8738 92.625 76.9313C82.0422 80.0789 71.0394 81.5852 60 81.3975ZM60 43.0838C48.8779 42.9351 37.8031 44.5579 27.1912 47.8913C16.6912 51.555 11.985 56.565 11.985 59.8913C11.985 63.3713 17.0438 68.8425 28.1512 72.6413C38.4753 75.7382 49.2248 77.1799 60 76.9125C70.5615 77.1014 81.0897 75.6723 91.2188 72.675C102.75 68.8538 108 63.375 108 59.9025C107.811 58.7109 107.377 57.5714 106.725 56.5561C106.073 55.5408 105.217 54.6717 104.213 54.0038C100.657 51.2556 96.6439 49.1559 92.3587 47.8013C81.8926 44.5154 70.9687 42.9228 60 43.0838Z" fill="#00D8FF"/>
<path d="M38.6995 106.661C36.9501 106.701 35.2214 106.277 33.6895 105.431C28.3195 102.334 26.4595 93.4013 28.7133 81.5325C31.1982 70.1741 35.5038 59.2924 41.4633 49.3088C47.0535 39.2929 54.2102 30.2359 62.662 22.4813C66.3864 19.0864 70.6828 16.3783 75.352 14.4825C77.0409 13.691 78.8832 13.2808 80.7483 13.2808C82.6134 13.2808 84.4557 13.691 86.1445 14.4825C91.7283 17.7 93.577 27.555 90.9708 40.2038C88.4091 50.9459 84.2154 61.2317 78.5358 70.7025C73.1423 80.6001 66.2109 89.5782 58.0008 97.3013C54.1412 100.829 49.662 103.612 44.7895 105.51C42.8388 106.234 40.7799 106.623 38.6995 106.661ZM45.3483 51.5363C39.6636 61.0962 35.537 71.5002 33.1233 82.3575C31.0495 93.2888 33.0408 99.8625 35.9358 101.535C38.9358 103.271 46.2183 101.625 55.0608 93.9C62.8984 86.5011 69.5141 77.907 74.662 68.4375C80.103 59.3832 84.1259 49.5493 86.5908 39.2775C89.0433 27.3713 86.9245 20.0813 83.917 18.3488C82.7898 17.9169 81.5853 17.7235 80.3795 17.781C79.1738 17.8384 77.993 18.1454 76.912 18.6825C72.7558 20.3976 68.9348 22.8324 65.6245 25.875C57.5495 33.303 50.7133 41.9735 45.3745 51.5588L45.3483 51.5363Z" fill="#00D8FF"/>
<path d="M81.2892 106.71C76.2079 106.71 69.7542 103.635 63.0342 97.8563C54.4343 90.0311 47.1566 80.8665 41.4829 70.7175C35.5982 60.8714 31.3267 50.1471 28.8304 38.9513C27.7478 34.0256 27.5472 28.947 28.2379 23.9513C28.3976 22.0981 28.9619 20.3024 29.891 18.691C30.8202 17.0796 32.0915 15.6917 33.6154 14.625C39.1917 11.3963 48.6529 14.715 58.3092 23.2875C66.3364 30.8707 73.1531 39.6402 78.5217 49.29C84.4028 58.9063 88.7191 69.3958 91.3092 80.3663C92.4383 85.4727 92.6125 90.744 91.8229 95.9138C91.635 97.8203 91.0371 99.6637 90.0701 101.317C89.103 102.971 87.7898 104.396 86.2204 105.495C84.7135 106.33 83.0116 106.75 81.2892 106.71ZM45.3642 68.46C50.807 78.1592 57.759 86.9301 65.9592 94.4438C74.3929 101.7 81.0829 103.26 83.9592 101.569C86.9592 99.825 89.1717 92.7075 86.8917 81.1913C84.3937 70.7173 80.2537 60.7047 74.6254 51.525C69.5023 42.2893 62.9957 33.892 55.3317 26.625C46.2417 18.555 38.8692 16.7513 35.8654 18.4913C34.9292 19.2521 34.1609 20.1988 33.6091 21.2715C33.0572 22.3442 32.7338 23.5197 32.6592 24.7238C32.0629 29.1791 32.2572 33.7047 33.2329 38.0925C35.634 48.7993 39.7307 59.0536 45.3679 68.4675L45.3642 68.46Z" fill="#00D8FF"/>
</svg>
