<svg width="18" height="18" viewBox="0 0 18 18" fill="none" xmlns="http://www.w3.org/2000/svg">
<path d="M6.62747 3.507C7.68301 1.61346 8.21076 0.666687 8.99984 0.666687C9.78892 0.666687 10.3167 1.61345 11.3722 3.507L11.6453 3.99688C11.9453 4.53496 12.0952 4.80401 12.3291 4.98153C12.5629 5.15905 12.8541 5.22494 13.4366 5.35673L13.9669 5.47671C16.0166 5.94049 17.0415 6.17237 17.2853 6.95646C17.5292 7.74052 16.8305 8.5576 15.4331 10.1916L15.0716 10.6144C14.6745 11.0787 14.4759 11.3109 14.3866 11.5981C14.2973 11.8854 14.3273 12.1951 14.3873 12.8147L14.442 13.3787C14.6533 15.5589 14.7589 16.6489 14.1206 17.1335C13.4822 17.6181 12.5226 17.1763 10.6034 16.2927L10.1069 16.064C9.56159 15.8129 9.28892 15.6874 8.99984 15.6874C8.71076 15.6874 8.43809 15.8129 7.89276 16.064L7.39626 16.2927C5.47707 17.1763 4.51749 17.6181 3.87913 17.1335C3.24077 16.6489 3.34641 15.5589 3.55767 13.3787L3.61232 12.8147C3.67236 12.1951 3.70238 11.8854 3.61306 11.5981C3.52374 11.3109 3.3252 11.0787 2.92811 10.6144L2.56659 10.1916C1.16921 8.5576 0.470522 7.74052 0.714356 6.95646C0.958189 6.17237 1.98306 5.94049 4.03279 5.47671L4.56308 5.35673C5.14555 5.22494 5.43678 5.15905 5.67062 4.98153C5.90446 4.80401 6.05445 4.53497 6.3544 3.99688L6.62747 3.507Z" stroke="black" stroke-width="0.9375"/>
</svg>
