<svg width="135.000000" height="30.767700" viewBox="0 0 135 30.7677" fill="none" xmlns="http://www.w3.org/2000/svg" xmlns:xlink="http://www.w3.org/1999/xlink">
	<desc>
			Created with Pixso.
	</desc>
	<defs/>
	<mask id="mask769_500" mask-type="alpha" maskUnits="userSpaceOnUse" x="0.000000" y="0.000000" width="135.000000" height="30.767700">
		<path id="Vector" d="M0 0L135 0L135 30.76L0 30.76L0 0Z" fill="#000000" fill-opacity="1.000000" fill-rule="evenodd"/>
	</mask>
	<g mask="url(#mask769_500)">
		<path id="Vector" d="M17.68 11.42L25.8 11.42L25.8 25.8L0 25.8L0 11.42L8.12 11.42L8.12 18.6L17.65 18.6L17.65 11.42L17.68 11.42ZM45.14 18.77C45.14 21.23 43.55 22.64 41.33 22.64C39.18 22.64 37.55 21.2 37.55 18.77L37.55 7.2L33.95 7.2L33.95 18.75C33.95 23.29 37.2 26.19 41.36 26.19C45.56 26.19 48.77 23.29 48.77 18.75L48.77 7.2L45.17 7.2L45.17 18.77L45.14 18.77ZM58.05 12.54C56.66 12.54 55.12 13.13 54.33 14.49L54.33 12.9L50.96 12.9L50.96 25.8L54.44 25.8L54.44 18.36C54.44 16.86 55.33 15.67 56.87 15.67C58.55 15.67 59.26 16.8 59.26 18.24L59.26 25.77L62.74 25.77L62.74 17.65C62.71 14.82 61.24 12.54 58.05 12.54ZM70.83 17.98C70.83 17.98 69.65 17.74 68.91 17.59C68.17 17.45 67.73 17.06 67.73 16.44C67.73 15.7 68.38 15.17 69.3 15.17C70.6 15.17 71.1 15.82 71.22 16.62L74.23 16.62C74.2 14.85 72.81 12.54 69.36 12.54C66.58 12.54 64.54 14.46 64.54 16.77C64.54 18.57 65.66 20.07 68.14 20.61L69.92 20.99C70.92 21.2 71.3 21.67 71.3 22.26C71.3 22.94 70.68 23.53 69.53 23.53C68.14 23.53 67.38 22.73 67.2 21.82L64.1 21.82C64.28 23.74 65.66 26.19 69.56 26.19C72.93 26.19 74.64 24.03 74.64 21.93C74.67 20.04 73.37 18.51 70.83 17.98ZM89.49 19.31C89.49 23.2 87.04 26.1 83.41 26.1C81.64 26.1 80.31 25.39 79.69 24.53L79.69 30.76L76.21 30.76L76.21 12.9L79.57 12.9L79.57 14.49C80.16 13.49 81.58 12.6 83.53 12.6C87.31 12.6 89.49 15.5 89.49 19.31ZM86.07 19.34C86.07 17.06 84.65 15.73 82.88 15.73C81.11 15.73 79.66 17.06 79.66 19.34C79.66 21.61 81.11 22.97 82.88 22.97C84.65 22.97 86.07 21.64 86.07 19.34ZM106.15 12.9L109.51 12.9L109.51 25.8L106.03 25.8L106.03 24.21C105.44 25.24 104.08 26.1 102.31 26.1C98.68 26.1 96.23 23.2 96.23 19.31C96.23 15.47 98.41 12.6 102.16 12.6C104.11 12.6 105.5 13.49 106.12 14.49L106.12 12.9L106.15 12.9ZM106.09 19.34C106.09 17.06 104.64 15.73 102.87 15.73C101.1 15.73 99.68 17.06 99.68 19.34C99.68 21.64 101.1 22.97 102.87 22.97C104.64 22.97 106.09 21.61 106.09 19.34ZM91.12 25.77L94.6 25.77L94.6 7.2L91.12 7.2L91.12 25.77ZM130.21 12.54C128.97 12.54 127.55 12.96 126.73 13.96L126.73 7.2L123.24 7.2L123.24 25.77L126.73 25.77L126.73 18.21C126.82 16.8 127.67 15.7 129.15 15.7C130.83 15.7 131.54 16.83 131.54 18.27L131.54 25.8L135.02 25.8L135.02 17.68C135 14.82 133.49 12.54 130.21 12.54ZM117.81 17.98C117.81 17.98 116.63 17.74 115.89 17.59C115.15 17.45 114.71 17.06 114.71 16.44C114.71 15.7 115.36 15.17 116.27 15.17C117.57 15.17 118.08 15.82 118.19 16.62L121.21 16.62C121.18 14.85 119.79 12.54 116.33 12.54C113.56 12.54 111.52 14.46 111.52 16.77C111.52 18.57 112.64 20.07 115.12 20.61L116.89 20.99C117.9 21.2 118.28 21.67 118.28 22.26C118.28 22.94 117.66 23.53 116.51 23.53C115.12 23.53 114.36 22.73 114.18 21.82L111.08 21.82C111.26 23.74 112.64 26.19 116.54 26.19C119.91 26.19 121.62 24.03 121.62 21.93C121.65 20.04 120.35 18.51 117.81 17.98ZM17.68 0L8.12 0L8.12 7.2L17.65 7.2L17.65 0L17.68 0Z" fill="#000000" fill-opacity="1.000000" fill-rule="nonzero"/>
	</g>
</svg>
