<svg width="167.000000" height="225.710938" viewBox="0 0 167 225.711" fill="none" xmlns="http://www.w3.org/2000/svg" xmlns:xlink="http://www.w3.org/1999/xlink">
	<desc>
			Created with Pixso.
	</desc>
	<defs>
		<clipPath id="clip373_197">
			<rect id="java logo" rx="0.000000" width="166.000000" height="224.710938" transform="translate(0.500000 0.500000)" fill="white" fill-opacity="0"/>
		</clipPath>
	</defs>
	<rect id="java logo" rx="0.000000" width="166.000000" height="224.710938" transform="translate(0.500000 0.500000)" fill="#FFFFFF" fill-opacity="0"/>
	<g clip-path="url(#clip373_197)">
		<path id="Vector" d="M53.85 174.48C53.85 174.48 45.24 179.49 59.98 181.18C77.83 183.22 86.95 182.93 106.63 179.2C106.63 179.2 111.8 182.45 119.03 185.25C74.92 204.16 19.21 184.16 53.85 174.48Z" fill="#5382A1" fill-opacity="1.000000" fill-rule="nonzero"/>
		<path id="Vector" d="M48.46 149.81C48.46 149.81 38.8 156.96 53.55 158.49C72.62 160.45 87.68 160.61 113.75 155.6C113.75 155.6 117.35 159.25 123.02 161.25C69.69 176.84 10.3 162.48 48.46 149.81Z" fill="#5382A1" fill-opacity="1.000000" fill-rule="nonzero"/>
		<path id="Vector" d="M93.89 107.97C104.76 120.48 91.04 131.74 91.04 131.74C91.04 131.74 118.63 117.49 105.96 99.66C94.12 83.02 85.05 74.75 134.19 46.26C134.19 46.26 57.06 65.52 93.89 107.97Z" fill="#E76F00" fill-opacity="1.000000" fill-rule="nonzero"/>
		<path id="Vector" d="M152.23 192.73C152.23 192.73 158.6 197.97 145.21 202.04C119.75 209.75 39.25 212.08 16.89 202.34C8.85 198.85 23.92 193.99 28.67 192.97C33.61 191.9 36.44 192.1 36.44 192.1C27.5 185.8 -21.35 204.47 11.63 209.81C101.55 224.4 175.56 203.25 152.23 192.73Z" fill="#5382A1" fill-opacity="1.000000" fill-rule="nonzero"/>
		<path id="Vector" d="M57.99 124.25C57.99 124.25 17.04 133.98 43.49 137.51C54.66 139.01 76.92 138.67 97.65 136.93C114.6 135.5 131.62 132.46 131.62 132.46C131.62 132.46 125.64 135.02 121.32 137.97C79.73 148.91 -0.6 143.82 22.53 132.64C42.09 123.18 57.99 124.25 57.99 124.25Z" fill="#5382A1" fill-opacity="1.000000" fill-rule="nonzero"/>
		<path id="Vector" d="M131.45 165.31C173.72 143.35 154.17 122.24 140.53 125.08C137.19 125.78 135.7 126.38 135.7 126.38C135.7 126.38 136.94 124.44 139.31 123.6C166.3 114.11 187.05 151.58 130.6 166.42C130.6 166.42 131.25 165.84 131.45 165.31Z" fill="#5382A1" fill-opacity="1.000000" fill-rule="nonzero"/>
		<path id="Vector" d="M105.96 0.24C105.96 0.24 129.37 23.66 83.76 59.67C47.18 88.55 75.42 105.02 83.74 123.84C62.39 104.58 46.72 87.62 57.23 71.84C72.66 48.67 115.41 37.44 105.96 0.24Z" fill="#E76F00" fill-opacity="1.000000" fill-rule="nonzero"/>
		<path id="Vector" d="M62.14 224.84C102.72 227.43 165.03 223.39 166.5 204.2C166.5 204.2 163.66 211.47 132.97 217.25C98.34 223.77 55.62 223.01 30.29 218.83C30.29 218.83 35.48 223.13 62.14 224.84Z" fill="#5382A1" fill-opacity="1.000000" fill-rule="nonzero"/>
	</g>
</svg>
