<svg width="100.000000" height="100.000000" viewBox="0 0 100 100" fill="none" xmlns="http://www.w3.org/2000/svg" xmlns:xlink="http://www.w3.org/1999/xlink">
	<desc>
			Created with Pixso.
	</desc>
	<defs>
		<clipPath id="clip769_493">
			<rect id="behance logo" rx="6.500000" width="99.000000" height="99.000000" transform="translate(0.500000 0.500000)" fill="white" fill-opacity="0"/>
		</clipPath>
	</defs>
	<rect id="behance logo" rx="6.500000" width="99.000000" height="99.000000" transform="translate(0.500000 0.500000)" fill="#FFFFFF" fill-opacity="0"/>
	<g clip-path="url(#clip769_493)">
		<path id="Vector" d="M0 0L100 0L100 100L0 100L0 0Z" fill="#4175FA" fill-opacity="1.000000" fill-rule="nonzero"/>
		<path id="Vector" d="M67.59 41.38C53.26 41.38 53.24 55.66 53.24 55.74C53.24 55.74 52.26 70.03 67.59 70.03C67.59 70.03 80.39 70.76 80.39 60.09L73.82 60.09C73.82 60.09 74.04 64.12 67.83 64.12C67.83 64.12 61.26 64.55 61.26 57.63L80.62 57.63C80.62 57.63 82.75 41.4 67.61 41.4L67.59 41.38ZM61.17 52.61C61.17 52.61 61.97 46.87 67.73 46.87C73.51 46.87 73.41 52.61 73.41 52.61L61.15 52.61L61.17 52.61ZM44.76 48.94C44.76 48.94 50.44 48.53 50.44 41.83C50.44 35.15 45.8 31.89 39.88 31.89L20.42 31.89L20.42 69.27L39.86 69.27C39.86 69.27 51.73 69.64 51.73 58.24C51.73 58.24 52.24 48.96 44.74 48.96L44.76 48.94ZM29.02 38.51L39.9 38.51C39.9 38.51 42.53 38.51 42.53 42.4C42.53 46.28 40.99 46.85 39.23 46.85L29.04 46.85L29.04 38.51L29.02 38.51ZM39.35 62.61L29.02 62.61L29.02 52.61L39.9 52.61C39.9 52.61 43.84 52.57 43.82 57.77C43.82 62.14 40.89 62.59 39.35 62.63L39.35 62.61ZM59.57 34.08L59.57 38.69L75 38.69L75 34.08L59.57 34.08Z" fill="#FFFFFF" fill-opacity="1.000000" fill-rule="nonzero"/>
	</g>
</svg>
