<svg width="19" height="17" viewBox="0 0 19 17" fill="none" xmlns="http://www.w3.org/2000/svg">
<rect x="0.5" y="2.92499" width="18" height="13.25" rx="3.5" stroke="black"/>
<path d="M4.0376 1V4.325" stroke="black" stroke-linecap="round"/>
<path d="M14.7251 1V4.325" stroke="black" stroke-linecap="round"/>
<path d="M1.8999 6.46255H17.5749" stroke="black" stroke-linecap="round"/>
<ellipse cx="4.7125" cy="8.7125" rx="0.7125" ry="0.7125" fill="black"/>
<ellipse cx="14.9874" cy="8.7125" rx="0.7125" ry="0.7125" fill="black"/>
<ellipse cx="4.7125" cy="10.7125" rx="0.7125" ry="0.7125" fill="black"/>
<ellipse cx="14.9874" cy="10.7125" rx="0.7125" ry="0.7125" fill="black"/>
<ellipse cx="4.7125" cy="12.7125" rx="0.7125" ry="0.7125" fill="black"/>
<ellipse cx="14.9874" cy="12.7125" rx="0.7125" ry="0.7125" fill="black"/>
<ellipse cx="8.1373" cy="8.7125" rx="0.7125" ry="0.7125" fill="black"/>
<ellipse cx="8.1373" cy="10.7125" rx="0.7125" ry="0.7125" fill="black"/>
<ellipse cx="8.1373" cy="12.7125" rx="0.7125" ry="0.7125" fill="black"/>
<ellipse cx="11.5626" cy="8.7125" rx="0.7125" ry="0.7125" fill="black"/>
<ellipse cx="11.5626" cy="10.7125" rx="0.7125" ry="0.7125" fill="black"/>
<ellipse cx="11.5626" cy="12.7125" rx="0.7125" ry="0.7125" fill="black"/>
</svg>
