<svg width="314.505127" height="356.683319" viewBox="0 0 314.505 356.683" fill="none" xmlns="http://www.w3.org/2000/svg" xmlns:xlink="http://www.w3.org/1999/xlink">
	<desc>
			Created with Pixso.
	</desc>
	<defs/>
	<path id="Vector" d="M157.06 356.68L28.62 321.02L0 0L314.5 0L285.85 320.97L157.06 356.68Z" fill="#FF7300" fill-opacity="1.000000" fill-rule="nonzero"/>
	<path id="Vector" d="M261.32 300.53L285.8 26.24L157.25 26.24L157.25 329.39L261.32 300.53Z" fill="#FF8A00" fill-opacity="1.000000" fill-rule="nonzero"/>
	<path id="Vector" d="M65.61 145.31L69.14 184.68L157.25 184.68L157.25 145.31L65.61 145.31Z" fill="#EBEBEB" fill-opacity="1.000000" fill-rule="nonzero"/>
	<path id="Vector" d="M58.52 65.62L62.1 104.99L157.25 104.99L157.25 65.62L58.52 65.62Z" fill="#EBEBEB" fill-opacity="1.000000" fill-rule="nonzero"/>
	<path id="Vector" d="M157.25 247.56L157.08 247.61L113.23 235.77L110.42 204.37L70.9 204.37L76.41 266.19L157.07 288.58L157.25 288.53L157.25 247.56Z" fill="#EBEBEB" fill-opacity="1.000000" fill-rule="nonzero"/>
	<path id="Vector" d="M248.63 145.31L252.19 105.46L255.74 65.62L157.11 65.62L157.11 104.99L212.59 104.99L209.01 145.31L157.11 145.31L157.11 184.68L205.6 184.68L201.03 235.75L157.11 247.6L157.11 288.56L237.83 266.19L238.42 259.54L247.67 155.88L248.63 145.31Z" fill="#FFFFFF" fill-opacity="1.000000" fill-rule="nonzero"/>
</svg>
