<svg width="733.000000" height="721.191772" viewBox="0 0 733 721.192" fill="none" xmlns="http://www.w3.org/2000/svg" xmlns:xlink="http://www.w3.org/1999/xlink">
	<desc>
			Created with Pixso.
	</desc>
	<defs/>
	<path id="Vector" d="M576.28 199.14C588.87 219.15 605.26 233.85 634.25 233.85C658.6 233.85 674.16 222.01 674.16 205.66C674.16 186.07 658.18 179.12 631.37 167.72L616.68 161.6C574.28 144.03 546.11 122.02 546.11 75.49C546.11 32.62 579.69 0 632.17 0C669.54 0 696.4 12.64 715.75 45.75L669.99 74.33C659.92 56.75 649.05 49.83 632.17 49.83C614.96 49.83 604.05 60.46 604.05 74.33C604.05 91.47 614.97 98.41 640.18 109.03L654.87 115.16C704.81 135.98 733 157.21 733 204.94C733 256.38 691.44 284.58 635.61 284.58C581.04 284.58 545.78 259.29 528.52 226.14L576.28 199.14ZM368.69 204.1C377.92 220.03 386.32 233.5 406.51 233.5C425.81 233.5 437.99 226.15 437.99 197.59L437.99 3.25L496.75 3.25L496.75 198.35C496.75 257.52 461.08 284.46 409 284.46C361.95 284.46 334.7 260.78 320.84 232.26L368.69 204.1Z" fill="#FF7300" fill-opacity="1.000000" fill-rule="nonzero"/>
	<path id="Vector" d="M157.06 508.86L28.62 473.2L0 152.17L314.5 152.17L285.85 473.15L157.06 508.86Z" fill="#FF7300" fill-opacity="1.000000" fill-rule="nonzero"/>
	<path id="Vector" d="M261.32 452.71L285.8 178.42L157.25 178.42L157.25 481.57L261.32 452.71Z" fill="#FF8A00" fill-opacity="1.000000" fill-rule="nonzero"/>
	<path id="Vector" d="M65.61 297.49L69.14 336.86L157.25 336.86L157.25 297.49L65.61 297.49Z" fill="#EBEBEB" fill-opacity="1.000000" fill-rule="nonzero"/>
	<path id="Vector" d="M58.52 217.8L62.1 257.17L157.25 257.17L157.25 217.8L58.52 217.8Z" fill="#EBEBEB" fill-opacity="1.000000" fill-rule="nonzero"/>
	<path id="Vector" d="M157.25 399.74L157.08 399.79L113.23 387.95L110.42 356.55L70.9 356.55L76.41 418.37L157.07 440.76L157.25 440.71L157.25 399.74Z" fill="#EBEBEB" fill-opacity="1.000000" fill-rule="nonzero"/>
	<path id="Vector" d="M248.63 297.49L252.19 257.64L255.74 217.8L157.11 217.8L157.11 257.17L212.59 257.17L209.01 297.49L157.11 297.49L157.11 336.86L205.6 336.86L201.03 387.93L157.11 399.78L157.11 440.74L237.83 418.37L238.42 411.72L247.67 308.06L248.63 297.49Z" fill="#FFFFFF" fill-opacity="1.000000" fill-rule="nonzero"/>
	<path id="Vector" d="M356.39 343.9L381.71 667.89C382.09 672.75 385.39 676.9 390.04 678.38L523.3 720.63C525.65 721.37 528.18 721.37 530.54 720.63L663.8 678.38C668.45 676.9 671.74 672.75 672.12 667.89L697.45 343.9C697.99 336.94 692.49 330.99 685.5 330.99L368.33 330.99C361.35 330.99 355.84 336.94 356.39 343.9ZM632.51 444.43L467.46 444.43L472.44 490.36L628.92 490.36L618.68 621.3L526.92 650.4L435.16 621.3L429.81 552.89L477.97 552.89L477.97 586.45L528.21 599.93L578.14 586.45L582.01 532.97L428.25 532.97L418.04 402.37L635.79 402.37L632.51 444.43Z" fill="#FF7300" fill-opacity="1.000000" fill-rule="nonzero"/>
</svg>
