<svg width="341.136719" height="390.200378" viewBox="0 0 341.137 390.2" fill="none" xmlns="http://www.w3.org/2000/svg" xmlns:xlink="http://www.w3.org/1999/xlink">
	<desc>
			Created with Pixso.
	</desc>
	<defs/>
	<path id="Vector" d="M0.03 12.91L25.36 336.9C25.74 341.76 29.03 345.91 33.68 347.39L166.94 389.64C169.3 390.38 171.83 390.38 174.19 389.64L307.44 347.39C312.1 345.91 315.39 341.76 315.77 336.9L341.09 12.91C341.64 5.95 336.13 0 329.15 0L11.98 0C4.99 0 -0.51 5.95 0.03 12.91ZM276.15 113.43L111.1 113.43L116.09 159.37L272.56 159.37L262.32 290.31L170.56 319.4L78.8 290.31L73.45 221.9L121.62 221.9L121.62 255.46L171.85 268.94L221.78 255.46L225.66 201.98L71.9 201.98L61.69 71.37L279.44 71.37L276.15 113.43Z" fill="#FF7300" fill-opacity="1.000000" fill-rule="nonzero"/>
</svg>
