<svg width="100.000000" height="114.382446" viewBox="0 0 100 114.382" fill="none" xmlns="http://www.w3.org/2000/svg" xmlns:xlink="http://www.w3.org/1999/xlink">
	<desc>
			Created with Pixso.
	</desc>
	<defs/>
	<path id="Vector" d="M0.01 3.78L7.43 98.75C7.54 100.18 8.51 101.4 9.87 101.83L48.93 114.21C49.62 114.43 50.37 114.43 51.06 114.21L90.12 101.83C91.48 101.4 92.45 100.18 92.56 98.75L99.98 3.78C100.14 1.74 98.53 0 96.48 0L3.51 0C1.46 0 -0.15 1.74 0.01 3.78ZM80.95 33.25L32.57 33.25L34.03 46.71L79.89 46.71L76.89 85.1L50 93.63L23.1 85.1L21.53 65.04L35.65 65.04L35.65 74.88L50.37 78.83L65.01 74.88L66.14 59.2L21.07 59.2L18.08 20.92L81.91 20.92L80.95 33.25Z" fill="#FF7300" fill-opacity="1.000000" fill-rule="nonzero"/>
</svg>
