<svg width="412.153931" height="284.582520" viewBox="0 0 412.154 284.583" fill="none" xmlns="http://www.w3.org/2000/svg" xmlns:xlink="http://www.w3.org/1999/xlink">
	<desc>
			Created with Pixso.
	</desc>
	<defs/>
	<path id="Vector" d="M255.43 199.14C268.03 219.15 284.41 233.85 313.4 233.85C337.76 233.85 353.31 222.01 353.31 205.66C353.31 186.07 337.33 179.12 310.53 167.72L295.84 161.6C253.43 144.03 225.26 122.02 225.26 75.49C225.26 32.62 258.84 0 311.33 0C348.69 0 375.55 12.64 394.91 45.75L349.15 74.33C339.07 56.75 328.2 49.83 311.33 49.83C294.11 49.83 283.2 60.46 283.2 74.33C283.2 91.47 294.12 98.41 319.34 109.03L334.03 115.16C383.96 135.98 412.15 157.21 412.15 204.94C412.15 256.38 370.59 284.58 314.77 284.58C260.19 284.58 224.93 259.29 207.68 226.14L255.43 199.14ZM47.84 204.1C57.07 220.03 65.47 233.5 85.66 233.5C104.97 233.5 117.15 226.15 117.15 197.59L117.15 3.25L175.91 3.25L175.91 198.35C175.91 257.52 140.23 284.46 88.16 284.46C41.1 284.46 13.85 260.78 0 232.26L47.84 204.1Z" fill="#FF7300" fill-opacity="1.000000" fill-rule="nonzero"/>
</svg>
