<svg width="70" height="40" viewBox="0 0 70 40" fill="none" xmlns="http://www.w3.org/2000/svg">
<path d="M54.0002 7.46341H36.6357C35.5312 7.46341 34.6357 8.35884 34.6357 9.46341V15C34.6357 16.1046 35.5312 17 36.6357 17H54.0002C55.1048 17 56.0002 16.1046 56.0002 15V9.46341C56.0002 8.35884 55.1048 7.46341 54.0002 7.46341Z" stroke="#FF8A00"/>
<path d="M29.9198 9.12195H15.1997C14.6474 9.12195 14.1997 9.56966 14.1997 10.1219V15.5854C14.1997 16.1377 14.6474 16.5854 15.1997 16.5854H29.9198C30.472 16.5854 30.9198 16.1377 30.9198 15.5854V10.1219C30.9198 9.56966 30.472 9.12195 29.9198 9.12195Z" stroke="#FF8A00"/>
<path d="M19.6842 4.98296L14.4961 6.70228C14.4813 6.70722 14.4657 6.70973 14.45 6.70973C14.3081 6.70973 14.249 6.89124 14.3636 6.97485L14.4529 7.0399C14.4667 7.04997 14.4818 7.05805 14.4979 7.06391L14.7749 7.16488C15.1962 7.31848 15.6536 7.34392 16.0894 7.23802L18.2632 6.70973L20.1579 6.36438L23 6.01902H23.9474H24.3601C25.0271 6.01902 25.6891 5.90214 26.3158 5.67367L26.8047 5.49544C27.08 5.39509 27.2632 5.13335 27.2632 4.84035C27.2632 4.51869 27.0431 4.23878 26.7306 4.16282L26.03 3.99256C25.9052 3.96223 25.7772 3.9469 25.6487 3.9469H25.0951C24.6471 3.9469 24.2003 3.99519 23.7625 4.09093L19.6842 4.98296Z" fill="#FF8A00"/>
<path d="M49.3196 2.17079L52.6191 3.25619L53.6982 3.67035C54.2223 3.87149 54.6695 4.23304 54.9759 4.70339C55.1433 4.96033 54.9077 5.28894 54.6106 5.21293L52.6191 4.70339L49.7909 4.34159L45.5487 3.25619L44.1346 2.89439L42.1144 2.17079L40.7677 1.809L39.9222 1.58185C39.6265 1.50241 39.4209 1.23437 39.4209 0.928188C39.4209 0.600408 39.6558 0.319734 39.9785 0.261949L41.2472 0.0347245C41.3762 0.0116204 41.507 0 41.638 0H42.1103C43.0038 0 43.8901 0.158931 44.7279 0.469365L49.3196 2.17079Z" fill="#FF8A00"/>
<path d="M9.83167 32.2421C9.83167 33.3015 9.62568 34.1952 9.21371 34.9231C8.80173 35.6479 8.24572 36.1977 7.54567 36.5725C6.84562 36.9442 6.06503 37.1301 5.20391 37.1301C4.33659 37.1301 3.55291 36.9427 2.85286 36.5679C2.1559 36.19 1.60144 35.6386 1.18946 34.9138C0.780586 34.1859 0.576147 33.2953 0.576147 32.2421C0.576147 31.1828 0.780586 30.2907 1.18946 29.5658C1.60144 28.8379 2.1559 28.2881 2.85286 27.9164C3.55291 27.5416 4.33659 27.3542 5.20391 27.3542C6.06503 27.3542 6.84562 27.5416 7.54567 27.9164C8.24572 28.2881 8.80173 28.8379 9.21371 29.5658C9.62568 30.2907 9.83167 31.1828 9.83167 32.2421ZM7.17396 32.2421C7.17396 31.6722 7.09807 31.1921 6.94629 30.8018C6.79761 30.4084 6.57613 30.111 6.28186 29.9097C5.99069 29.7052 5.63137 29.603 5.20391 29.603C4.77644 29.603 4.41558 29.7052 4.12131 29.9097C3.83014 30.111 3.60866 30.4084 3.45688 30.8018C3.3082 31.1921 3.23386 31.6722 3.23386 32.2421C3.23386 32.8121 3.3082 33.2938 3.45688 33.6872C3.60866 34.0774 3.83014 34.3748 4.12131 34.5793C4.41558 34.7806 4.77644 34.8813 5.20391 34.8813C5.63137 34.8813 5.99069 34.7806 6.28186 34.5793C6.57613 34.3748 6.79761 34.0774 6.94629 33.6872C7.09807 33.2938 7.17396 32.8121 7.17396 32.2421ZM16.8906 37L13.9727 33.1528H13.6103V37H11.0269V27.4843H13.6103V31.0713H13.9448L16.6769 27.4843H19.9293L16.3052 32.0563L20.1338 37H16.8906ZM22.2026 37.1301V35.1229H22.6672C22.9398 35.1229 23.1551 35.1012 23.313 35.0578C23.4741 35.0114 23.598 34.9308 23.6848 34.8162C23.7746 34.6985 23.8505 34.5343 23.9124 34.3237L24.0054 34.0449L20.437 27.4843H23.0761L25.0647 31.35L26.5887 27.4843H29.1907L25.9196 34.9184C25.74 35.3087 25.5263 35.6727 25.2785 36.0103C25.0306 36.3449 24.7224 36.6159 24.3538 36.8234C23.9852 37.0279 23.5283 37.1301 22.9832 37.1301H22.2026ZM30.027 37V27.4843H34.1344C34.8406 27.4843 35.4586 27.6237 35.9883 27.9025C36.518 28.1812 36.9299 28.5731 37.2242 29.078C37.5185 29.5829 37.6656 30.173 37.6656 30.8482C37.6656 31.5297 37.5138 32.1198 37.2103 32.6185C36.9098 33.1172 36.487 33.5013 35.9418 33.7708C35.3997 34.0403 34.7663 34.175 34.0415 34.175H31.5882V32.1678H33.5211C33.8246 32.1678 34.0833 32.1151 34.297 32.0098C34.5138 31.9014 34.6796 31.7481 34.7942 31.5498C34.9119 31.3516 34.9707 31.1177 34.9707 30.8482C34.9707 30.5757 34.9119 30.3433 34.7942 30.1513C34.6796 29.9561 34.5138 29.8075 34.297 29.7052C34.0833 29.5999 33.8246 29.5473 33.5211 29.5473H32.6104V37H30.027ZM38.6135 27.4843H41.8287L44.0404 32.874H44.1519L46.3636 27.4843H49.5788V37H47.0512V31.4987H46.9769L44.8582 36.9257H43.3342L41.2154 31.4616H41.1411V37H38.6135V27.4843ZM58.2187 31.3315V33.3387H53.9998V31.3315H58.2187ZM50.7846 33.7847H53.3308C53.3184 34.2494 53.45 34.5916 53.7257 34.8116C54.0045 35.0315 54.387 35.1415 54.8734 35.1415C55.3256 35.1415 55.6694 35.0532 55.9048 34.8766C56.1434 34.697 56.306 34.4166 56.3927 34.0356C56.4825 33.6515 56.5275 33.1528 56.5275 32.5395V31.9634C56.5275 31.3624 56.4763 30.8715 56.3741 30.4905C56.2719 30.1095 56.1046 29.8291 55.8723 29.6495C55.64 29.4698 55.3256 29.38 54.9291 29.38C54.4954 29.38 54.1625 29.4373 53.9301 29.5519C53.6978 29.6665 53.5383 29.8307 53.4516 30.0444C53.3648 30.2582 53.3184 30.5137 53.3122 30.8111H50.766C50.8279 30.173 51.0184 29.5922 51.3375 29.0687C51.6565 28.5452 52.1134 28.1286 52.7082 27.8188C53.3029 27.5091 54.0432 27.3542 54.9291 27.3542C55.7593 27.3542 56.481 27.5416 57.0943 27.9164C57.7107 28.2881 58.1877 28.8209 58.5254 29.5147C58.8661 30.2055 59.0365 31.0279 59.0365 31.9819V32.5395C59.0365 33.4936 58.8723 34.3144 58.544 35.0021C58.2156 35.6866 57.7417 36.2132 57.1222 36.5818C56.5027 36.9473 55.7531 37.1301 54.8734 37.1301C54.0742 37.1301 53.3726 36.9938 52.7686 36.7212C52.1676 36.4455 51.6937 36.0583 51.3468 35.5596C51.0029 35.0578 50.8155 34.4662 50.7846 33.7847ZM60.2201 37V27.4843H62.8035V31.2014H66.2232V27.4843H68.8066V37H66.2232V33.2829H62.8035V37H60.2201Z" fill="#FF8A00"/>
</svg>
