<svg width="100.000000" height="97.368408" viewBox="0 0 100 97.3684" fill="none" xmlns="http://www.w3.org/2000/svg" xmlns:xlink="http://www.w3.org/1999/xlink">
	<desc>
			Created with Pixso.
	</desc>
	<defs>
		<clipPath id="clip769_489">
			<rect id="Adobe logo" rx="0.000000" width="99.000000" height="96.368423" transform="translate(0.500000 0.500000)" fill="white" fill-opacity="0"/>
		</clipPath>
	</defs>
	<rect id="Adobe logo" rx="0.000000" width="99.000000" height="96.368423" transform="translate(0.500000 0.500000)" fill="#FFFFFF" fill-opacity="0"/>
	<g clip-path="url(#clip769_489)">
		<path id="Vector" d="M17.7 0.01L82.29 0.01C92.08 0.01 100 7.91 100 17.69L100 79.67C100 89.45 92.08 97.35 82.29 97.35L17.7 97.35C7.91 97.35 0 89.45 0 79.67L0 17.69C0 7.91 7.91 0.01 17.7 0.01Z" fill="#001E36" fill-opacity="1.000000" fill-rule="nonzero"/>
		<path id="Vector" d="M22.5 68.27L22.5 25.47C22.5 25.17 22.62 25.01 22.91 25.01C23.62 25.01 24.29 25.01 25.25 24.97C26.25 24.92 27.29 24.92 28.41 24.88C29.54 24.84 30.75 24.84 32.04 24.8C33.33 24.76 34.58 24.76 35.83 24.76C39.25 24.76 42.08 25.17 44.41 26.05C46.5 26.76 48.41 27.92 50 29.46C51.33 30.79 52.37 32.41 53.04 34.2C53.66 35.95 54 37.74 54 39.61C54 43.19 53.16 46.14 51.5 48.47C49.83 50.8 47.5 52.55 44.79 53.55C41.95 54.59 38.83 54.96 35.41 54.96C34.41 54.96 33.75 54.96 33.33 54.92C32.91 54.88 32.33 54.88 31.54 54.88L31.54 68.23C31.58 68.52 31.37 68.77 31.08 68.81L23 68.81C22.66 68.81 22.5 68.65 22.5 68.27ZM31.58 33.04L31.58 47.02C32.16 47.06 32.7 47.1 33.2 47.1L35.41 47.1C37.04 47.1 38.66 46.85 40.2 46.35C41.54 45.98 42.7 45.18 43.62 44.14C44.5 43.1 44.91 41.69 44.91 39.86C44.95 38.57 44.62 37.28 43.95 36.16C43.25 35.08 42.25 34.24 41.04 33.79C39.5 33.16 37.83 32.91 36.12 32.95C35.04 32.95 34.08 32.95 33.29 33C32.45 32.95 31.87 33 31.58 33.04ZM80 44.48C78.75 43.81 77.41 43.35 76 43.06C74.45 42.73 72.91 42.52 71.33 42.52C70.5 42.48 69.62 42.61 68.83 42.81C68.29 42.94 67.83 43.23 67.54 43.65C67.33 43.98 67.2 44.39 67.2 44.77C67.2 45.14 67.37 45.52 67.62 45.85C68 46.31 68.5 46.68 69.04 46.97C70 47.47 71 47.93 72 48.35C74.25 49.1 76.41 50.14 78.41 51.38C79.79 52.26 80.91 53.42 81.7 54.84C82.37 56.17 82.7 57.62 82.66 59.12C82.7 61.08 82.12 63.03 81.04 64.65C79.87 66.32 78.25 67.61 76.37 68.36C74.33 69.23 71.83 69.69 68.83 69.69C66.91 69.69 65.04 69.52 63.16 69.15C61.7 68.9 60.25 68.44 58.91 67.82C58.62 67.65 58.41 67.36 58.45 67.03L58.45 59.79C58.45 59.66 58.5 59.5 58.62 59.41C58.75 59.33 58.87 59.37 59 59.45C60.62 60.41 62.33 61.08 64.16 61.49C65.75 61.91 67.41 62.12 69.08 62.12C70.66 62.12 71.79 61.91 72.54 61.53C73.2 61.24 73.66 60.54 73.66 59.79C73.66 59.2 73.33 58.66 72.66 58.12C72 57.58 70.62 56.96 68.58 56.17C66.45 55.42 64.5 54.42 62.66 53.17C61.37 52.26 60.29 51.05 59.5 49.64C58.83 48.3 58.5 46.85 58.54 45.39C58.54 43.6 59.04 41.9 59.95 40.36C61 38.69 62.54 37.36 64.33 36.53C66.29 35.53 68.75 35.08 71.7 35.08C73.41 35.08 75.16 35.2 76.87 35.45C78.12 35.62 79.33 35.95 80.45 36.41C80.62 36.45 80.79 36.61 80.87 36.78C80.91 36.95 80.95 37.11 80.95 37.28L80.95 44.06C80.95 44.23 80.87 44.39 80.75 44.48C80.37 44.56 80.16 44.56 80 44.48Z" fill="#31A8FF" fill-opacity="1.000000" fill-rule="nonzero"/>
	</g>
</svg>
