<svg width="82.000000" height="82.000000" viewBox="0 0 82 82" fill="none" xmlns="http://www.w3.org/2000/svg" xmlns:xlink="http://www.w3.org/1999/xlink">
	<desc>
			Created with Pixso.
	</desc>
	<defs>
		<clipPath id="clip655_334">
			<rect id="target-arrow_svgrepo.com" rx="0.000000" width="81.000000" height="81.000000" transform="translate(0.500000 0.500000)" fill="white" fill-opacity="0"/>
		</clipPath>
	</defs>
	<rect id="target-arrow_svgrepo.com" rx="0.000000" width="81.000000" height="81.000000" transform="translate(0.500000 0.500000)" fill="#FFFFFF" fill-opacity="0"/>
	<g clip-path="url(#clip655_334)">
		<path id="Vector" d="M41 10.25C41 10.25 41 10.25 41 10.25C24.01 10.25 10.25 24.01 10.25 41C10.25 57.98 24.01 71.75 41 71.75C57.98 71.75 71.75 57.98 71.75 41C71.75 40.99 71.75 40.99 71.75 40.99C71.75 40.44 71.95 39.91 72.34 39.52L78.28 33.58C79.38 32.48 81.25 33 81.49 34.54C81.82 36.64 82 38.8 82 41C82 63.64 63.64 82 41 82C18.35 82 0 63.64 0 41C0 18.35 18.35 0 41 0C43.19 0 45.35 0.17 47.45 0.5C48.99 0.74 49.51 2.61 48.41 3.71L42.47 9.65C42.08 10.04 41.55 10.25 41 10.25Z" fill="#FF7300" fill-opacity="1.000000" fill-rule="nonzero"/>
		<path id="Vector" d="M20.5 40.99C20.5 32.35 25.85 24.95 33.42 21.94C34.63 21.46 35.87 22.41 35.87 23.72L35.87 30.96C35.87 31.68 35.48 32.32 34.91 32.75C32.38 34.62 30.75 37.61 30.75 40.99C30.75 46.66 35.33 51.24 41 51.24C44.38 51.24 47.37 49.61 49.24 47.08C49.67 46.51 50.31 46.12 51.03 46.12L58.27 46.12C59.58 46.12 60.53 47.36 60.05 48.57C57.04 56.14 49.64 61.5 41 61.5C29.67 61.5 20.5 52.32 20.5 40.99Z" fill="#FF7300" fill-opacity="1.000000" fill-rule="nonzero"/>
		<path id="Vector" d="M71.74 10.25L66.62 0L51.24 15.37L51.24 23.5L39.93 34.81L47.18 42.06L58.49 30.75L66.62 30.75L81.99 15.37L71.74 10.25Z" fill="#FF7300" fill-opacity="1.000000" fill-rule="nonzero"/>
	</g>
</svg>
