<svg width="510.343750" height="569.541687" viewBox="0 0 510.344 569.542" fill="none" xmlns="http://www.w3.org/2000/svg" xmlns:xlink="http://www.w3.org/1999/xlink">
	<desc>
			Created with Pixso.
	</desc>
	<defs/>
	<path id="Vector 75" d="M473.64 133.38L281.45 23.91C264.33 14.16 243.38 14.01 226.13 23.52L38.35 127.04C20.11 137.1 8.86 156.37 9.09 177.2L11.5 399C11.73 419.68 23.23 438.6 41.49 448.32L227.01 547.11C243.8 556.04 263.95 555.95 280.65 546.86L472.68 442.34C490.88 432.43 502.21 413.37 502.21 392.64L502.21 182.54C502.21 162.21 491.3 143.45 473.64 133.38Z" fill="#FF910F" fill-opacity="1.000000" fill-rule="nonzero"/>
	<path id="Vector 75" d="M473.64 133.38C491.3 143.45 502.21 162.21 502.21 182.54L502.21 392.64C502.21 413.37 490.88 432.43 472.68 442.34L280.65 546.86C263.95 555.95 243.8 556.04 227.01 547.11L41.49 448.32C23.23 438.6 11.73 419.68 11.5 399L9.09 177.2C8.86 156.37 20.11 137.1 38.35 127.04L226.13 23.52C243.38 14.01 264.33 14.16 281.45 23.91L473.64 133.38Z" stroke="#FFFFFF" stroke-opacity="1.000000" stroke-width="12.572939"/>
	<path id="Vector 76" d="M479.88 129.33C497.52 139.4 508.41 158.15 508.41 178.46L508.41 396.81C508.41 417.51 497.1 436.56 478.93 446.47L280.18 554.91C263.45 564.04 243.25 564.13 226.43 555.16L34.36 452.64C16.13 442.91 4.66 424.01 4.43 403.34L1.93 172.93C1.71 152.12 12.92 132.87 31.14 122.8L225.55 15.37C242.83 5.82 263.83 5.97 280.97 15.75L479.88 129.33Z" stroke="#FF910F" stroke-opacity="1.000000" stroke-width="3.866613"/>
	<path id="Ellipse 58" d="M388.34 205.95C367.28 172.31 334.87 149.6 298.88 139.66C260.12 128.9 220.58 133.75 187.26 150.36C151.32 168.22 125.63 198.06 112.65 232.41C98.62 269.4 100.41 308.4 114.66 342.26C129.97 378.77 158.29 406.23 192.21 421.64C228.74 438.29 268.57 439.64 304.16 428.42C342.53 416.38 372.72 390.9 391.14 359.02L322.6 321.1C312.92 337.9 297.49 349.55 280.08 355.03C261.33 360.95 241.93 359.26 225.35 351.71C207.47 343.61 194.38 329.47 187.43 312.91C179.91 295.07 180.09 275.99 186.44 259.2C193.27 241.09 206.62 227.19 222.92 219.08C240.47 210.32 259.9 208.97 277.49 213.85C296.46 219.07 311.67 231 321.23 246.26L388.34 205.95Z" fill="#FFFFFF" fill-opacity="1.000000" fill-rule="evenodd"/>
	<path id="Vector 76" d="M367.05 240.81L367.05 319.39L385.91 319.39L385.91 240.81L367.05 240.81Z" fill="#FFFFFF" fill-opacity="1.000000" fill-rule="evenodd"/>
	<path id="Vector 77" d="M404.77 240.81L404.77 319.39L423.63 319.39L423.63 240.81L404.77 240.81Z" fill="#FFFFFF" fill-opacity="1.000000" fill-rule="evenodd"/>
	<path id="Vector 78" d="M354.48 272.25L433.06 272.25L433.06 253.39L354.48 253.39L354.48 272.25Z" fill="#FFFFFF" fill-opacity="1.000000" fill-rule="evenodd"/>
	<path id="Vector 79" d="M354.48 309.96L433.06 309.96L433.06 291.1L354.48 291.1L354.48 309.96Z" fill="#FFFFFF" fill-opacity="1.000000" fill-rule="evenodd"/>
</svg>
