<svg width="70" height="70" viewBox="0 0 70 70" fill="none" xmlns="http://www.w3.org/2000/svg">
<g clip-path="url(#clip0_1476_1045)">
<path d="M63.1641 0H6.83594C3.06055 0 0 3.06055 0 6.83594V63.1641C0 66.9394 3.06055 70 6.83594 70H63.1641C66.9394 70 70 66.9394 70 63.1641V6.83594C70 3.06055 66.9394 0 63.1641 0Z" fill="#3178C6"/>
<path d="M63.1641 0H6.83594C3.06055 0 0 3.06055 0 6.83594V63.1641C0 66.9394 3.06055 70 6.83594 70H63.1641C66.9394 70 70 66.9394 70 63.1641V6.83594C70 3.06055 66.9394 0 63.1641 0Z" fill="#3178C6"/>
<path fill-rule="evenodd" clip-rule="evenodd" d="M43.3315 55.7025V62.5468C44.4441 63.1172 45.76 63.5448 47.2793 63.83C48.7985 64.1152 50.3996 64.2578 52.0829 64.2578C53.7234 64.2578 55.2817 64.101 56.7581 63.7872C58.2345 63.4736 59.5291 62.9567 60.6417 62.2366C61.7544 61.5166 62.6352 60.5754 63.2842 59.4133C63.9332 58.2512 64.2578 56.8147 64.2578 55.1037C64.2578 53.8631 64.0724 52.7759 63.7015 51.842C63.3306 50.908 62.7957 50.0775 62.0967 49.3503C61.3978 48.6231 60.5597 47.9706 59.5826 47.3931C58.6054 46.8156 57.5035 46.2703 56.2767 45.757C55.3781 45.3862 54.5721 45.0263 53.8588 44.677C53.1456 44.3275 52.5394 43.9711 52.0401 43.6075C51.5408 43.2439 51.1556 42.8589 50.8847 42.4525C50.6137 42.0461 50.4781 41.5863 50.4781 41.0729C50.4781 40.6025 50.5993 40.1782 50.8419 39.8003C51.0844 39.4224 51.4268 39.0981 51.8689 38.8272C52.3112 38.5563 52.8531 38.3459 53.495 38.1962C54.1371 38.0465 54.8502 37.9717 55.6348 37.9717C56.2053 37.9717 56.808 38.0145 57.4428 38.1C58.0776 38.1855 58.7159 38.3175 59.358 38.4956C59.9998 38.6739 60.6238 38.8985 61.2302 39.1694C61.8364 39.4404 62.3963 39.754 62.9098 40.1105V33.7154C61.8685 33.3162 60.7309 33.0203 59.497 32.8278C58.2631 32.6353 56.8472 32.5391 55.2497 32.5391C53.6234 32.5391 52.0829 32.7138 50.6279 33.0631C49.173 33.4124 47.8927 33.9578 46.7871 34.6992C45.6816 35.4408 44.8079 36.3854 44.166 37.5333C43.5241 38.681 43.2031 40.0534 43.2031 41.6504C43.2031 43.6894 43.7916 45.429 44.9684 46.8692C46.1452 48.3093 47.9318 49.5284 50.3284 50.5266C51.2698 50.9116 52.1471 51.2894 52.9602 51.6601C53.7733 52.0309 54.4759 52.4159 55.0677 52.8151C55.6597 53.2144 56.1269 53.6493 56.4694 54.1198C56.8117 54.5903 56.9829 55.125 56.9829 55.724C56.9829 56.166 56.8758 56.5759 56.6619 56.9537C56.4479 57.3316 56.1233 57.6595 55.6883 57.9376C55.2532 58.2157 54.7112 58.433 54.0621 58.5899C53.413 58.7468 52.6535 58.8252 51.7833 58.8252C50.2998 58.8252 48.8306 58.565 47.3755 58.0445C45.9205 57.5241 44.5725 56.7435 43.3315 55.7025ZM31.8254 38.8393H40.6055V33.2227H16.1328V38.8393H24.87V63.8477H31.8254V38.8393Z" fill="white"/>
</g>
<defs>
<clipPath id="clip0_1476_1045">
<rect width="70" height="70" fill="white"/>
</clipPath>
</defs>
</svg>
