<svg width="90.000000" height="90.000000" viewBox="0 0 90 90" fill="none" xmlns="http://www.w3.org/2000/svg" xmlns:xlink="http://www.w3.org/1999/xlink">
	<desc>
			Created with Pixso.
	</desc>
	<defs/>
	<path id="Vector" d="M75.35 29.22C83.38 29.22 89.92 22.68 89.92 14.64C89.92 6.61 83.38 0.07 75.35 0.07C67.31 0.07 60.77 6.61 60.77 14.64L60.77 22.83L29.22 22.83L29.22 14.64C29.22 6.61 22.68 0.07 14.64 0.07C6.61 0.07 0.07 6.61 0.07 14.64C0.07 22.68 6.61 29.22 14.64 29.22L22.83 29.22L22.83 60.77L14.64 60.77C6.61 60.77 0.07 67.31 0.07 75.35C0.07 83.38 6.61 89.92 14.64 89.92C22.68 89.92 29.22 83.38 29.22 75.35L29.22 67.16L60.77 67.16L60.77 75.35C60.77 83.38 67.31 89.92 75.35 89.92C83.38 89.92 89.92 83.38 89.92 75.35C89.92 67.31 83.38 60.77 75.35 60.77L67.16 60.77L67.16 29.22L75.35 29.22ZM67.16 14.64C67.16 10.13 70.83 6.46 75.35 6.46C79.86 6.46 83.53 10.13 83.53 14.64C83.53 19.16 79.86 22.83 75.35 22.83L67.16 22.83L67.16 14.64ZM14.64 22.83C10.13 22.83 6.46 19.16 6.46 14.64C6.46 10.13 10.13 6.46 14.64 6.46C19.16 6.46 22.83 10.13 22.83 14.64L22.83 22.83L14.64 22.83ZM22.83 75.35C22.83 79.86 19.16 83.53 14.64 83.53C10.13 83.53 6.46 79.86 6.46 75.35C6.46 70.83 10.13 67.16 14.64 67.16L22.83 67.16L22.83 75.35ZM29.22 60.77L29.22 29.22L60.77 29.22L60.77 60.77L29.22 60.77ZM75.35 67.16C79.86 67.16 83.53 70.83 83.53 75.35C83.53 79.86 79.86 83.53 75.35 83.53C70.83 83.53 67.16 79.86 67.16 75.35L67.16 67.16L75.35 67.16Z" fill="#FF7300" fill-opacity="1.000000" fill-rule="nonzero"/>
	<path id="Vector" d="M75.35 90C67.27 90 60.7 83.42 60.7 75.35L60.7 67.24L29.29 67.24L29.29 75.35C29.29 83.42 22.72 90 14.64 90C6.57 90 0 83.42 0 75.35C0 67.27 6.57 60.7 14.64 60.7L22.75 60.7L22.75 29.29L14.64 29.29C6.57 29.29 0 22.72 0 14.64C0 6.57 6.57 0 14.64 0C22.72 0 29.29 6.57 29.29 14.64L29.29 22.75L60.7 22.75L60.7 14.64C60.7 6.57 67.27 0 75.35 0C83.42 0 90 6.57 90 14.64C90 22.72 83.42 29.29 75.35 29.29L67.24 29.29L67.24 60.7L75.35 60.7C83.42 60.7 89.99 67.27 89.99 75.35C89.99 83.42 83.42 90 75.35 90ZM29.14 67.09L60.85 67.09L60.85 75.35C60.85 83.34 67.35 89.85 75.35 89.85C83.34 89.85 89.85 83.34 89.85 75.35C89.85 67.35 83.34 60.85 75.35 60.85L67.09 60.85L67.09 29.14L75.35 29.14C83.34 29.14 89.85 22.64 89.85 14.64C89.85 6.65 83.34 0.14 75.35 0.14C67.35 0.14 60.85 6.65 60.85 14.64L60.85 22.9L29.14 22.9L29.14 14.64C29.14 6.65 22.64 0.14 14.64 0.14C6.65 0.14 0.14 6.65 0.14 14.64C0.14 22.64 6.65 29.14 14.64 29.14L22.9 29.14L22.9 60.85L14.64 60.85C6.65 60.85 0.14 67.35 0.14 75.35C0.14 83.34 6.65 89.85 14.64 89.85C22.64 89.85 29.14 83.34 29.14 75.35L29.14 67.09ZM14.64 83.6C10.09 83.6 6.39 79.9 6.39 75.35C6.39 70.79 10.09 67.09 14.64 67.09L22.9 67.09L22.9 75.35C22.9 79.9 19.2 83.6 14.64 83.6ZM14.64 67.24C10.17 67.24 6.54 70.87 6.54 75.35C6.54 79.82 10.17 83.45 14.64 83.45C19.12 83.45 22.75 79.82 22.75 75.35L22.75 67.24L14.64 67.24ZM75.35 83.6C70.79 83.6 67.09 79.9 67.09 75.35L67.09 67.09L75.35 67.09C79.9 67.09 83.6 70.79 83.6 75.35C83.6 79.9 79.9 83.6 75.35 83.6ZM67.24 67.24L67.24 75.35C67.24 79.82 70.87 83.45 75.35 83.45C79.82 83.45 83.45 79.82 83.45 75.35C83.45 70.87 79.82 67.24 75.35 67.24L67.24 67.24ZM60.85 60.85L29.14 60.85L29.14 29.14L60.85 29.14L60.85 60.85ZM29.29 60.7L60.7 60.7L60.7 29.29L29.29 29.29L29.29 60.7ZM75.35 22.9L67.09 22.9L67.09 14.64C67.09 10.09 70.79 6.39 75.35 6.39C79.9 6.39 83.6 10.09 83.6 14.64C83.6 19.2 79.9 22.9 75.35 22.9ZM67.24 22.75L75.35 22.75C79.82 22.75 83.45 19.12 83.45 14.64C83.45 10.17 79.82 6.54 75.35 6.54C70.87 6.54 67.24 10.17 67.24 14.64L67.24 22.75ZM22.9 22.9L14.64 22.9C10.09 22.9 6.39 19.2 6.39 14.64C6.39 10.09 10.09 6.39 14.64 6.39C19.2 6.39 22.9 10.09 22.9 14.64L22.9 22.9ZM14.64 6.54C10.17 6.54 6.54 10.17 6.54 14.64C6.54 19.12 10.17 22.75 14.64 22.75L22.75 22.75L22.75 14.64C22.75 10.17 19.12 6.54 14.64 6.54Z" fill="#FF7300" fill-opacity="1.000000" fill-rule="nonzero"/>
</svg>
