<svg width="33" height="33" viewBox="0 0 33 33" fill="none" xmlns="http://www.w3.org/2000/svg">
<path fill-rule="evenodd" clip-rule="evenodd" d="M4.81253 16.5C4.81253 10.0452 10.0452 4.8125 16.5 4.8125C22.9548 4.8125 28.1875 10.0452 28.1875 16.5C28.1875 22.9548 22.9548 28.1875 16.5 28.1875C14.2007 28.1875 12.0605 27.525 10.2547 26.3809C9.91866 26.168 9.50686 26.1111 9.12566 26.2248L5.16683 27.4064L6.65738 23.9185C6.83356 23.5063 6.79771 23.0341 6.56132 22.6533C5.45284 20.867 4.81253 18.7604 4.81253 16.5ZM16.5 2.0625C8.52642 2.0625 2.06253 8.52639 2.06253 16.5C2.06253 19.0274 2.7131 21.4064 3.8564 23.475L1.48565 29.0221C1.27607 29.5126 1.36897 30.0799 1.724 30.4778C2.07904 30.8759 2.63219 31.0326 3.14324 30.88L9.32994 29.0338C11.4434 30.2452 13.8926 30.9375 16.5 30.9375C24.4736 30.9375 30.9375 24.4736 30.9375 16.5C30.9375 8.52639 24.4736 2.0625 16.5 2.0625ZM19.6522 19.5008L17.8452 20.7736C16.9989 20.2916 16.0632 19.6186 15.1246 18.6801C14.1489 17.7044 13.4255 16.697 12.8922 15.773L14.0405 14.7983C14.5333 14.38 14.6682 13.6748 14.3646 13.1041L12.9014 10.3541C12.7044 9.98383 12.3491 9.72372 11.9366 9.64774C11.5241 9.57177 11.0994 9.68825 10.7834 9.96406L10.3496 10.3427C9.30632 11.2532 8.68931 12.7494 9.20069 14.2644C9.73085 15.8349 10.8623 18.3067 13.1801 20.6246C15.6738 23.1183 18.2068 24.1003 19.6881 24.4817C20.8816 24.7889 22.011 24.3771 22.8069 23.7287L23.6202 23.0659C23.968 22.7825 24.1557 22.347 24.123 21.8995C24.0901 21.4519 23.841 21.0485 23.4554 20.8187L21.1478 19.4437C20.6817 19.1661 20.0959 19.1884 19.6522 19.5008Z" fill="#FF7300"/>
</svg>
