<svg xmlns="http://www.w3.org/2000/svg" width="30" height="30" viewBox="0 0 30 30" fill="none">
<path d="M15.3635 13.4324V25.0972M15.3635 13.4324C15.3635 10.7104 15.3635 9.34935 14.8337 8.30967C14.3677 7.39514 13.6242 6.65161 12.7097 6.18562C11.67 5.65588 10.309 5.65588 7.58694 5.65588H6.37186C5.69136 5.65588 5.3511 5.65588 5.09118 5.78832C4.86255 5.90482 4.67667 6.0907 4.56017 6.31933C4.42773 6.57925 4.42773 6.91951 4.42773 7.60001V20.7229C4.42773 21.4034 4.42773 21.7437 4.56017 22.0036C4.67667 22.2322 4.86255 22.418 5.09118 22.5346C5.3511 22.667 5.69136 22.667 6.37186 22.667H9.95231C10.6087 22.667 10.9369 22.667 11.2542 22.7236C11.5359 22.7738 11.8107 22.8569 12.0729 22.9715C12.3683 23.1004 12.6414 23.2824 13.1875 23.6466L15.3635 25.0972M15.3635 13.4324C15.3635 10.7104 15.3635 9.34935 15.8932 8.30967C16.3592 7.39514 17.1027 6.65161 18.0172 6.18562C19.0569 5.65588 20.4179 5.65588 23.14 5.65588H24.355C25.0356 5.65588 25.3758 5.65588 25.6357 5.78832C25.8644 5.90482 26.0502 6.0907 26.1667 6.31933C26.2992 6.57925 26.2992 6.91951 26.2992 7.60001V20.7229C26.2992 21.4034 26.2992 21.7437 26.1667 22.0036C26.0502 22.2322 25.8644 22.418 25.6357 22.5346C25.3758 22.667 25.0356 22.667 24.355 22.667H20.7746C20.1182 22.667 19.79 22.667 19.4727 22.7236C19.191 22.7738 18.9162 22.8569 18.654 22.9715C18.3586 23.1004 18.0855 23.2824 17.5394 23.6466L15.3635 25.0972" stroke="white" stroke-width="2.44977" stroke-linecap="round" stroke-linejoin="round"/>
</svg>