<svg xmlns="http://www.w3.org/2000/svg" width="30" height="30" viewBox="0 0 30 30" fill="none">
<path d="M14.0826 5.17059H9.46586C8.10503 5.17059 7.42461 5.17059 6.90484 5.43543C6.44763 5.66839 6.07591 6.0401 5.84297 6.4973C5.57812 7.01708 5.57813 7.6975 5.57813 9.05833V20.7215C5.57813 22.0824 5.57812 22.7629 5.84297 23.2826C6.07591 23.7398 6.44763 24.1115 6.90484 24.3444C7.42461 24.6093 8.10503 24.6093 9.46586 24.6093H21.1291C22.4899 24.6093 23.1704 24.6093 23.6901 24.3444C24.1473 24.1115 24.5191 23.7398 24.752 23.2826C25.0168 22.7629 25.0168 22.0824 25.0168 20.7215V15.4974M19.5497 6.99296L22.986 10.4293M13.7943 12.7484L21.8714 4.67128C22.8202 3.72237 24.3588 3.72237 25.3077 4.67128C26.2566 5.62019 26.2566 7.15868 25.3077 8.10759L16.9709 16.4443C16.0456 17.3697 15.583 17.8323 15.0559 18.2002C14.5882 18.5269 14.0836 18.7974 13.5529 19.0063C12.9547 19.2418 12.3134 19.3712 11.0306 19.6301L10.4378 19.7496L10.4954 19.346C10.6994 17.9181 10.8014 17.2041 11.0335 16.5375C11.2393 15.9459 11.5206 15.3836 11.8703 14.8639C12.2643 14.2783 12.7743 13.7683 13.7943 12.7484Z" stroke="white" stroke-width="2.17988" stroke-linecap="round" stroke-linejoin="round"/>
</svg>