<svg width="272" height="103" viewBox="0 0 272 103" fill="none" xmlns="http://www.w3.org/2000/svg">
<path d="M2.34946 95.8836C3.27642 74.0747 20.3925 55.1288 51.3691 52.8339M51.6673 52.8231C50.0173 39.575 61.4292 3.95423 110.343 2.36274C159.257 0.771263 165.69 47.7957 163.699 46.0404" stroke="white" stroke-width="3.57989" stroke-linecap="round"/>
<path d="M163 48.5C163 72.5244 137.614 94.5 110 94.5C82.3858 94.5 53 72.5244 53 48.5C53 24.4756 81.5 -1 113.5 3.49999C141 1.49999 163 24.4756 163 48.5Z" fill="white"/>
<path d="M208 94C173 94 184.114 94 156.5 94C128.886 94 158 94 108 94C108 66.3858 130.386 44 158 44C185.614 44 208 66.3858 208 94Z" fill="white"/>
<path d="M267.5 94C232.5 94 243.614 94 216 94C188.386 94 217.5 94 167.5 94C167.5 66.3858 193.386 57.5 221 57.5C248.614 57.5 255.5 67 267.5 94Z" fill="white"/>
<path d="M104.5 94C69.5 94 80.6142 94 53 94C25.3858 94 54.5 94 4.5 94C4.5 66.3858 30.8858 52.5 58.5 52.5C86.1142 52.5 92.5 67 104.5 94Z" fill="white"/>
<path d="M194.274 63.2304C194.832 64.0463 195.946 64.2554 196.762 63.6974C197.578 63.1393 197.787 62.0254 197.229 61.2095L194.274 63.2304ZM163.463 47.8429C171.548 47.5606 177.182 48.5162 181.775 50.8926C186.37 53.2703 190.135 57.1789 194.274 63.2304L197.229 61.2095C192.945 54.9453 188.774 50.4833 183.42 47.7131C178.064 44.9416 171.734 43.9721 163.339 44.2652L163.463 47.8429Z" fill="white"/>
<path d="M195.45 62.1148C228.519 46.379 258.108 61.6848 269.435 95.71" stroke="white" stroke-width="3.57989" stroke-linecap="round"/>
<path d="M269.132 97.3241C270.121 97.324 270.922 96.5224 270.922 95.5339C270.921 94.5453 270.12 93.7441 269.131 93.7442L269.132 97.3241ZM2.34213 97.374L269.132 97.3241L269.131 93.7442L2.34146 93.7941L2.34213 97.374Z" fill="white"/>
</svg>
